Coordinates
version=1
nRows=41
nColumns=38
inDegrees=no

Units are S.I. units (second, meters, Newtons, ...)
If the header above contains a line with 'inDegrees', this indicates whether rotational values are in degrees (yes) or radians (no).

endheader
time	pelvis_tilt	pelvis_list	pelvis_rotation	pelvis_tx	pelvis_ty	pelvis_tz	hip_flexion_r	hip_adduction_r	hip_rotation_r	knee_angle_r	ankle_angle_r	subtalar_angle_r	mtp_angle_r	hip_flexion_l	hip_adduction_l	hip_rotation_l	knee_angle_l	ankle_angle_l	subtalar_angle_l	mtp_angle_l	lumbar_extension	lumbar_bending	lumbar_rotation	arm_flex_r	arm_add_r	arm_rot_r	elbow_flex_r	pro_sup_r	wrist_flex_r	wrist_dev_r	arm_flex_l	arm_add_l	arm_rot_l	elbow_flex_l	pro_sup_l	wrist_flex_l	wrist_dev_l
25	0.178434	1.10027	1.49983	0.705199	0.0746491	0.853527	1.26438	0.0271276	0.0891449	1.20864	0.0120964	0	0	1.25076	-0.163054	0.0613425	1.30956	-0.0354947	0	0	-0.568566	0.00595648	0.0133601	0.620744	-0.442697	0.978996	0.608717	0.590792	0	0	0.386738	-0.28211	0.236598	0.631198	1.03861	0	0
25.01	0.178767	1.09915	1.49982	0.70529	0.0741291	0.85136	1.2704	0.0265616	0.0880264	1.21572	0.0193847	0	0	1.25653	-0.161821	0.0641686	1.31608	-0.0299899	0	0	-0.569399	0.00510941	0.0165495	0.612798	-0.441465	0.953517	0.608998	0.614544	0	0	0.390394	-0.279437	0.235887	0.628168	1.04456	0	0
25.02	0.179423	1.09948	1.49968	0.705312	0.0735347	0.849481	1.27467	0.0255804	0.0867554	1.222	0.0212113	0	0	1.26072	-0.16024	0.067026	1.3224	-0.0276318	0	0	-0.571267	0.00556218	0.016995	0.612419	-0.440708	0.950298	0.608542	0.61562	0	0	0.392122	-0.279393	0.237272	0.627357	1.04436	0	0
25.03	0.179748	1.09924	1.50008	0.705305	0.0729013	0.847639	1.2795	0.0243008	0.085775	1.22806	0.0232062	0	0	1.26543	-0.158162	0.0698772	1.32848	-0.0251115	0	0	-0.572321	0.00597772	0.0173649	0.611569	-0.439973	0.946543	0.60823	0.617755	0	0	0.393874	-0.279955	0.240125	0.626833	1.04343	0	0
25.04	0.179382	1.09771	1.50133	0.7053	0.0722332	0.845712	1.2859	0.0227997	0.0852055	1.23448	0.0254903	0	0	1.27142	-0.155645	0.072759	1.33446	-0.0222917	0	0	-0.571698	0.00620309	0.0173756	0.610018	-0.439186	0.942299	0.608126	0.620703	0	0	0.395064	-0.281352	0.244148	0.626792	1.0401	0	0
25.05	0.178947	1.09644	1.50252	0.705346	0.071568	0.843929	1.29242	0.0227058	0.0860994	1.24199	0.0269485	0	0	1.27691	-0.153344	0.0753756	1.33999	-0.0205309	0	0	-0.571282	0.00625998	0.0171277	0.608936	-0.438616	0.939365	0.608432	0.622671	0	0	0.395758	-0.283045	0.246746	0.62736	1.03664	0	0
25.06	0.1788	1.09476	1.50361	0.705335	0.0709236	0.842269	1.29654	0.0216038	0.0848211	1.24463	0.0281127	0	0	1.28269	-0.150823	0.0779089	1.34517	-0.0192217	0	0	-0.570459	0.00653228	0.0166737	0.607829	-0.438199	0.936497	0.608863	0.623997	0	0	0.395923	-0.284827	0.248816	0.628627	1.03344	0	0
25.07	0.178154	1.09296	1.50503	0.705403	0.070252	0.840638	1.30339	0.0214076	0.086369	1.25134	0.0286558	0	0	1.2885	-0.148218	0.080281	1.35019	-0.0180121	0	0	-0.568999	0.0063483	0.0161842	0.606341	-0.43794	0.933893	0.609755	0.625774	0	0	0.395587	-0.286931	0.250924	0.630482	1.03016	0	0
25.08	0.178046	1.09166	1.50551	0.705478	0.0696901	0.839188	1.30826	0.0209523	0.0867807	1.25536	0.0292213	0	0	1.29336	-0.145777	0.083016	1.35501	-0.0168466	0	0	-0.568036	0.00613824	0.0160162	0.604962	-0.438065	0.931363	0.610921	0.627952	0	0	0.394915	-0.289159	0.252845	0.632808	1.02697	0	0
25.09	0.178526	1.08979	1.50562	0.705519	0.0691035	0.837864	1.31194	0.0202831	0.0856871	1.25665	0.0297923	0	0	1.29854	-0.14351	0.0854693	1.35885	-0.0160964	0	0	-0.56667	0.00621385	0.015749	0.603663	-0.438359	0.928629	0.612281	0.630104	0	0	0.394098	-0.291404	0.254618	0.635519	1.02386	0	0
25.1	0.179177	1.08762	1.50557	0.705631	0.0684341	0.836631	1.31701	0.0201844	0.0858627	1.25995	0.0297751	0	0	1.30379	-0.141664	0.0876946	1.36171	-0.0156504	0	0	-0.564836	0.00626169	0.0154984	0.602614	-0.438883	0.926403	0.61383	0.632777	0	0	0.39326	-0.293812	0.256619	0.638392	1.02094	0	0
25.11	0.179788	1.08619	1.50477	0.705854	0.0678905	0.835609	1.32086	0.0208963	0.086104	1.26267	0.0293685	0	0	1.30753	-0.140042	0.0909668	1.36411	-0.015248	0	0	-0.563617	0.00581521	0.0157725	0.60171	-0.439415	0.924196	0.615477	0.635539	0	0	0.392225	-0.296321	0.258513	0.641454	1.01824	0	0
25.12	0.180316	1.08454	1.50467	0.70599	0.0673132	0.834809	1.32442	0.0208957	0.085923	1.26445	0.0285108	0	0	1.31113	-0.137721	0.0942009	1.36559	-0.0152059	0	0	-0.56239	0.00558759	0.0155109	0.600683	-0.43978	0.921155	0.617282	0.637679	0	0	0.39134	-0.298848	0.26014	0.644661	1.01544	0	0
25.13	0.18051	1.08262	1.50575	0.706028	0.066691	0.834261	1.3278	0.0198568	0.0854949	1.26538	0.0273468	0	0	1.31449	-0.134414	0.0970978	1.36605	-0.0153491	0	0	-0.561231	0.00555702	0.0144756	0.599599	-0.44	0.917571	0.619292	0.639845	0	0	0.390869	-0.301471	0.261807	0.647808	1.01241	0	0
25.14	0.180252	1.08037	1.50784	0.706014	0.0660149	0.833943	1.33105	0.0181803	0.0851114	1.26535	0.0261267	0	0	1.31757	-0.130308	0.0995658	1.36551	-0.0156027	0	0	-0.560013	0.00557034	0.0128601	0.598872	-0.440037	0.913713	0.620863	0.642284	0	0	0.390875	-0.304085	0.263703	0.650702	1.00909	0	0
25.15	0.179678	1.07757	1.51063	0.705999	0.0652763	0.833845	1.3343	0.0163166	0.0849495	1.26432	0.0250244	0	0	1.32067	-0.125569	0.101778	1.36395	-0.0160588	0	0	-0.558494	0.00557193	0.0108847	0.598605	-0.43978	0.909863	0.621814	0.644736	0	0	0.391418	-0.306594	0.265911	0.653336	1.0058	0	0
25.16	0.179168	1.07427	1.51345	0.706033	0.0644798	0.833936	1.3376	0.0147974	0.0849173	1.26303	0.0240253	0	0	1.32403	-0.12061	0.103951	1.36176	-0.0167191	0	0	-0.556641	0.00557488	0.00894313	0.598683	-0.439141	0.90619	0.622177	0.646762	0	0	0.392451	-0.308901	0.268372	0.655663	1.00292	0	0
25.17	0.179015	1.07077	1.51579	0.706117	0.0636616	0.834199	1.34048	0.0138887	0.084902	1.26079	0.0228685	0	0	1.32743	-0.115827	0.106339	1.35937	-0.0174152	0	0	-0.554658	0.00570995	0.00731987	0.599138	-0.438286	0.902997	0.621974	0.648393	0	0	0.393918	-0.310884	0.270921	0.657582	1.00041	0	0
25.18	0.179262	1.06741	1.51753	0.706241	0.0628504	0.83463	1.34306	0.0130038	0.0848537	1.25778	0.0215743	0	0	1.33038	-0.111441	0.108608	1.35676	-0.0178877	0	0	-0.552906	0.00593256	0.00608465	0.600113	-0.437306	0.900635	0.621177	0.649772	0	0	0.395883	-0.312421	0.273684	0.658914	0.998388	0	0
25.19	0.180022	1.06347	1.51875	0.706378	0.0620349	0.835127	1.34592	0.0121895	0.0847247	1.25404	0.0201086	0	0	1.33355	-0.107044	0.111136	1.35353	-0.018215	0	0	-0.550673	0.00631818	0.00518763	0.601094	-0.436016	0.897809	0.61966	0.651476	0	0	0.398208	-0.31375	0.277521	0.659737	0.995537	0	0
25.2	0.181727	1.05915	1.51893	0.706553	0.0612096	0.835671	1.34873	0.0121813	0.0843274	1.24993	0.019162	0	0	1.33688	-0.103046	0.113863	1.34987	-0.0184543	0	0	-0.548003	0.00699962	0.00517367	0.601888	-0.434931	0.894907	0.617963	0.653049	0	0	0.401311	-0.314745	0.283184	0.659543	0.991328	0	0
25.21	0.184285	1.05565	1.51786	0.706725	0.0604495	0.836352	1.35052	0.0125588	0.0836182	1.24587	0.0193599	0	0	1.33943	-0.0999242	0.116645	1.34656	-0.0185979	0	0	-0.546114	0.00795264	0.0060447	0.602643	-0.43406	0.891929	0.616461	0.653816	0	0	0.405238	-0.315635	0.291225	0.6585	0.985247	0	0
25.22	0.187652	1.05293	1.51521	0.706912	0.0597808	0.837148	1.35107	0.0139991	0.0826399	1.24171	0.0186177	0	0	1.34105	-0.0982687	0.119097	1.34357	-0.0187934	0	0	-0.545452	0.00939537	0.00630626	0.605917	-0.432669	0.893832	0.614407	0.652356	0	0	0.406687	-0.314568	0.288263	0.658521	0.990229	0	0
25.23	0.191563	1.05016	1.51164	0.707116	0.0591585	0.837965	1.35144	0.0156426	0.0812187	1.23716	0.018017	0	0	1.3424	-0.0974265	0.121813	1.34037	-0.0188972	0	0	-0.544719	0.0110009	0.00732071	0.609161	-0.431201	0.895551	0.611805	0.650781	0	0	0.408454	-0.312935	0.285287	0.657638	0.994814	0	0
25.24	0.195591	1.0475	1.50767	0.707329	0.0585727	0.838805	1.35174	0.0170199	0.0792615	1.23255	0.0174167	0	0	1.3434	-0.0972362	0.124354	1.33699	-0.0187784	0	0	-0.544057	0.0125659	0.0089374	0.61228	-0.43	0.897463	0.609176	0.649084	0	0	0.410694	-0.310747	0.282262	0.655907	0.999021	0	0
25.25	0.199121	1.04523	1.50366	0.707649	0.0580238	0.83972	1.3517	0.0184006	0.0772219	1.22764	0.0165456	0	0	1.34374	-0.0979613	0.126245	1.33333	-0.0184566	0	0	-0.543707	0.0135265	0.0111463	0.615379	-0.428683	0.899514	0.606147	0.64723	0	0	0.413628	-0.308317	0.279545	0.653306	1.00326	0	0
25.26	0.202808	1.0406	1.49917	0.708202	0.0572844	0.840349	1.35418	0.0206237	0.0755337	1.22187	0.0150197	0	0	1.34709	-0.0995425	0.128782	1.32946	-0.0185316	0	0	-0.54065	0.0141959	0.0141085	0.617717	-0.426972	0.900922	0.602481	0.645123	0	0	0.416617	-0.305858	0.277129	0.650187	1.00781	0	0
25.27	0.203155	1.03372	1.50016	0.708149	0.0563094	0.842139	1.35597	0.017301	0.0715545	1.20945	0.0115982	0	0	1.34853	-0.0949169	0.133425	1.31715	-0.0199529	0	0	-0.540468	0.0143444	0.0147328	0.622373	-0.425154	0.899306	0.59864	0.642784	0	0	0.423693	-0.302416	0.273671	0.646403	1.0133	0	0
25.28	0.208625	1.03739	1.49164	0.708467	0.0567194	0.843226	1.34983	0.02013	0.0671547	1.20673	0.00943762	0	0	1.34401	-0.102354	0.13089	1.31869	-0.0200171	0	0	-0.544525	0.0148047	0.0196522	0.623982	-0.423963	0.899666	0.595324	0.641101	0	0	0.42619	-0.298543	0.270139	0.641948	1.01847	0	0
25.29	0.204416	1.03475	1.49819	0.708333	0.0560699	0.844886	1.34948	0.0149307	0.06621	1.1993	0.00690431	0	0	1.34156	-0.0965492	0.13231	1.30846	-0.0209197	0	0	-0.545914	0.0125321	0.017918	0.626629	-0.421444	0.897969	0.591901	0.638359	0	0	0.433394	-0.296008	0.268418	0.636979	1.0244	0	0
25.3	0.204095	1.03338	1.49834	0.708615	0.0558306	0.845855	1.34859	0.0138451	0.0646129	1.1944	0.00483694	0	0	1.3405	-0.0970107	0.13226	1.30403	-0.0219789	0	0	-0.545653	0.0107046	0.0189819	0.627066	-0.418679	0.895558	0.588424	0.635146	0	0	0.437685	-0.293532	0.266499	0.631824	1.03063	0	0
25.31	0.204655	1.03203	1.49726	0.709016	0.0556471	0.846667	1.34811	0.0138019	0.0627888	1.19099	0.00339456	0	0	1.33996	-0.0984831	0.132142	1.30058	-0.0230788	0	0	-0.544736	0.00889083	0.0203956	0.62684	-0.415761	0.893186	0.584992	0.631179	0	0	0.441374	-0.29125	0.264689	0.626532	1.03693	0	0
25.32	0.205418	1.03077	1.49612	0.709395	0.0555363	0.847391	1.34764	0.0137458	0.0609719	1.18793	0.00222558	0	0	1.33949	-0.0998989	0.132044	1.29739	-0.0241766	0	0	-0.543478	0.00716308	0.0214676	0.626293	-0.412907	0.891325	0.581669	0.626787	0	0	0.444653	-0.289272	0.262996	0.621106	1.04332	0	0
25.33	0.206085	1.02983	1.49521	0.709715	0.0554995	0.848076	1.34683	0.0135937	0.0593442	1.18483	0.000963214	0	0	1.33868	-0.101028	0.131959	1.29412	-0.0253522	0	0	-0.542341	0.00564311	0.0220861	0.625859	-0.410215	0.890525	0.57842	0.622791	0	0	0.44765	-0.287685	0.261837	0.615681	1.05051	0	0
25.34	0.20683	1.0294	1.49436	0.709986	0.0555312	0.848762	1.34546	0.0135181	0.0579375	1.18168	-0.000476659	0	0	1.33732	-0.101834	0.132042	1.29092	-0.02654	0	0	-0.541753	0.00442193	0.0223005	0.625816	-0.40762	0.890242	0.575051	0.619317	0	0	0.450478	-0.286176	0.260545	0.61041	1.05781	0	0
25.35	0.207822	1.02966	1.4934	0.710216	0.0556262	0.849484	1.3434	0.0135017	0.0566677	1.17875	-0.0018986	0	0	1.33536	-0.102596	0.132169	1.28809	-0.0276177	0	0	-0.54196	0.00364487	0.0222366	0.626291	-0.405189	0.89008	0.57167	0.616551	0	0	0.45316	-0.284568	0.258737	0.605358	1.06434	0	0
25.36	0.209151	1.03051	1.49221	0.7104	0.0557744	0.850283	1.34076	0.0134831	0.0553075	1.17651	-0.00304522	0	0	1.33288	-0.103439	0.13238	1.28573	-0.0285517	0	0	-0.542976	0.00331839	0.0221447	0.627293	-0.40306	0.890031	0.568382	0.614585	0	0	0.455653	-0.282695	0.256369	0.600709	1.06953	0	0
25.37	0.210808	1.03181	1.49078	0.710551	0.0559798	0.851132	1.33747	0.0135908	0.053967	1.17424	-0.003742	0	0	1.32994	-0.104419	0.132608	1.28361	-0.0293214	0	0	-0.544365	0.00330954	0.0220894	0.628348	-0.400969	0.889698	0.564908	0.612725	0	0	0.457813	-0.28064	0.253492	0.596529	1.07326	0	0
25.38	0.212745	1.03346	1.48908	0.710694	0.0562326	0.852021	1.33367	0.0139665	0.0527227	1.1717	-0.00412978	0	0	1.32661	-0.105764	0.132577	1.28141	-0.029965	0	0	-0.545923	0.00344378	0.0220701	0.629672	-0.398881	0.889646	0.560848	0.611252	0	0	0.459777	-0.278551	0.250496	0.592578	1.07623	0	0
25.39	0.214938	1.03534	1.48714	0.710833	0.0565098	0.852939	1.32952	0.0146113	0.0515785	1.16874	-0.00459052	0	0	1.32307	-0.107405	0.13239	1.27913	-0.0304525	0	0	-0.547459	0.00380788	0.0219943	0.631396	-0.396824	0.890237	0.556439	0.610254	0	0	0.461566	-0.276532	0.247754	0.588765	1.07903	0	0
25.4	0.21728	1.03734	1.48512	0.710967	0.0568151	0.853867	1.32521	0.0153387	0.050506	1.16559	-0.00521492	0	0	1.31939	-0.109013	0.132293	1.27681	-0.0308467	0	0	-0.548761	0.00441369	0.0217383	0.633135	-0.394713	0.891343	0.55224	0.609355	0	0	0.463081	-0.274577	0.245269	0.585064	1.08173	0	0
